<svg width="144" height="43" viewBox="0 0 144 43" fill="none" xmlns="http://www.w3.org/2000/svg">
<rect x="22.8629" y="2.83063" width="5.65437" height="27.0361" rx="2.82719" transform="rotate(43.92 22.8629 2.83063)" fill="#5B68FF"/>
<rect x="33.1191" y="17.7593" width="5.65437" height="23.3974" rx="2.82719" transform="rotate(43.92 33.1191 17.7593)" fill="#5B68FF"/>
<rect x="16.4165" y="9.52472" width="5.65437" height="26.7421" rx="2.82719" transform="rotate(-46.08 16.4165 9.52472)" fill="#5B68FF"/>
<path d="M9.72069 26.6988C7.37391 24.9902 3.75244 22.6753 5.76601 20.5844C5.87835 20.4677 5.99829 20.3628 6.1243 20.2696C8.21745 18.7223 11.0996 20.9024 13.2446 22.377C14.3482 23.1357 15.6739 24.1829 17.1619 25.6159C18.6499 27.0488 19.7464 28.3341 20.5461 29.4083C22.1006 31.4962 24.3877 34.2942 22.9204 36.4442C22.832 36.5736 22.7317 36.6974 22.6194 36.814C20.6058 38.905 18.156 35.3733 16.3602 33.0926C15.5959 32.1219 14.5816 30.981 13.2397 29.6888C11.8979 28.3966 10.7196 27.426 9.72069 26.6988Z" fill="#5B68FF"/>
<rect x="22.8589" y="2.83484" width="5.65437" height="15.4999" rx="2.82719" transform="rotate(43.92 22.8589 2.83484)" fill="#5B68FF"/>
<rect x="26.4307" y="24.7048" width="5.65437" height="13.755" rx="2.82719" transform="rotate(43.92 26.4307 24.7048)" fill="#5B68FF"/>
<path d="M49.1978 27V15.3636H56.766V17.1307H51.3057V20.2898H56.3739V22.0568H51.3057V25.233H56.8114V27H49.1978ZM62.8597 27H58.9165V15.3636H62.9393C64.0946 15.3636 65.087 15.5966 65.9165 16.0625C66.7499 16.5246 67.39 17.1894 67.837 18.0568C68.284 18.9242 68.5074 19.9621 68.5074 21.1705C68.5074 22.3826 68.2821 23.4242 67.8313 24.2955C67.3843 25.1667 66.7385 25.8352 65.8938 26.3011C65.0529 26.767 64.0415 27 62.8597 27ZM61.0245 25.1761H62.7574C63.568 25.1761 64.2442 25.0284 64.7858 24.733C65.3275 24.4337 65.7347 23.9886 66.0074 23.3977C66.2802 22.803 66.4165 22.0606 66.4165 21.1705C66.4165 20.2803 66.2802 19.5417 66.0074 18.9545C65.7347 18.3636 65.3313 17.9223 64.7972 17.6307C64.2669 17.3352 63.6078 17.1875 62.8199 17.1875H61.0245V25.1761ZM77.8455 15.3636H79.9535V22.9659C79.9535 23.7992 79.7565 24.5322 79.3625 25.1648C78.9724 25.7973 78.4232 26.2917 77.7148 26.6477C77.0065 27 76.1788 27.1761 75.2319 27.1761C74.2811 27.1761 73.4516 27 72.7432 26.6477C72.0349 26.2917 71.4857 25.7973 71.0955 25.1648C70.7054 24.5322 70.5103 23.7992 70.5103 22.9659V15.3636H72.6182V22.7898C72.6182 23.2746 72.7243 23.7064 72.9364 24.0852C73.1523 24.464 73.4554 24.7614 73.8455 24.9773C74.2357 25.1894 74.6978 25.2955 75.2319 25.2955C75.766 25.2955 76.2281 25.1894 76.6182 24.9773C77.0122 24.7614 77.3152 24.464 77.5273 24.0852C77.7394 23.7064 77.8455 23.2746 77.8455 22.7898V15.3636ZM92.2049 19.2898H90.0799C90.0193 18.9413 89.9075 18.6326 89.7447 18.3636C89.5818 18.0909 89.3791 17.8598 89.1367 17.6705C88.8943 17.4811 88.6178 17.339 88.3072 17.2443C88.0003 17.1458 87.6689 17.0966 87.3128 17.0966C86.6803 17.0966 86.1197 17.2557 85.631 17.5739C85.1424 17.8883 84.7598 18.3504 84.4833 18.9602C84.2068 19.5663 84.0685 20.3068 84.0685 21.1818C84.0685 22.072 84.2068 22.822 84.4833 23.4318C84.7636 24.0379 85.1462 24.4962 85.631 24.8068C86.1197 25.1136 86.6784 25.267 87.3072 25.267C87.6556 25.267 87.9814 25.2216 88.2844 25.1307C88.5912 25.036 88.8659 24.8977 89.1083 24.7159C89.3545 24.5341 89.5609 24.3106 89.7276 24.0455C89.8981 23.7803 90.0155 23.4773 90.0799 23.1364L92.2049 23.1477C92.1253 23.7008 91.953 24.2197 91.6878 24.7045C91.4265 25.1894 91.0837 25.6174 90.6594 25.9886C90.2352 26.3561 89.739 26.6439 89.1708 26.8523C88.6026 27.0568 87.9719 27.1591 87.2787 27.1591C86.256 27.1591 85.3431 26.9223 84.5401 26.4489C83.7371 25.9754 83.1045 25.2917 82.6424 24.3977C82.1803 23.5038 81.9492 22.4318 81.9492 21.1818C81.9492 19.928 82.1822 18.8561 82.6481 17.9659C83.114 17.072 83.7484 16.3883 84.5515 15.9148C85.3545 15.4413 86.2636 15.2045 87.2787 15.2045C87.9265 15.2045 88.5287 15.2955 89.0856 15.4773C89.6424 15.6591 90.1386 15.9261 90.5742 16.2784C91.0098 16.6269 91.3678 17.0549 91.6481 17.5625C91.9322 18.0663 92.1178 18.642 92.2049 19.2898ZM95.489 27H93.239L97.3356 15.3636H99.9378L104.04 27H101.79L98.6822 17.75H98.5912L95.489 27ZM95.5628 22.4375H101.699V24.1307H95.5628V22.4375ZM103.655 17.1307V15.3636H112.939V17.1307H109.343V27H107.252V17.1307H103.655ZM116.837 15.3636V27H114.729V15.3636H116.837ZM129.517 21.1818C129.517 22.4356 129.283 23.5095 128.813 24.4034C128.347 25.2936 127.711 25.9754 126.904 26.4489C126.101 26.9223 125.19 27.1591 124.171 27.1591C123.152 27.1591 122.239 26.9223 121.432 26.4489C120.629 25.9716 119.993 25.2879 119.523 24.3977C119.057 23.5038 118.824 22.4318 118.824 21.1818C118.824 19.928 119.057 18.8561 119.523 17.9659C119.993 17.072 120.629 16.3883 121.432 15.9148C122.239 15.4413 123.152 15.2045 124.171 15.2045C125.19 15.2045 126.101 15.4413 126.904 15.9148C127.711 16.3883 128.347 17.072 128.813 17.9659C129.283 18.8561 129.517 19.928 129.517 21.1818ZM127.398 21.1818C127.398 20.2992 127.26 19.5549 126.983 18.9489C126.711 18.339 126.332 17.8788 125.847 17.5682C125.362 17.2538 124.803 17.0966 124.171 17.0966C123.538 17.0966 122.979 17.2538 122.495 17.5682C122.01 17.8788 121.629 18.339 121.353 18.9489C121.08 19.5549 120.944 20.2992 120.944 21.1818C120.944 22.0644 121.08 22.8106 121.353 23.4205C121.629 24.0265 122.01 24.4867 122.495 24.8011C122.979 25.1117 123.538 25.267 124.171 25.267C124.803 25.267 125.362 25.1117 125.847 24.8011C126.332 24.4867 126.711 24.0265 126.983 23.4205C127.26 22.8106 127.398 22.0644 127.398 21.1818ZM141.073 15.3636V27H139.198L133.715 19.0739H133.618V27H131.51V15.3636H133.397L138.874 23.2955H138.976V15.3636H141.073Z" fill="#081131"/>
</svg>
